<svg width="480" height="300" xmlns="http://www.w3.org/2000/svg">
 <!-- Created with Method Draw - http://github.com/duopixel/Method-Draw/ -->
 <g>
  <title>background</title>
  <rect fill="#fffcfc" id="canvas_background" height="102" width="182" y="-1" x="-1"/>
  <g display="none" overflow="visible" y="0" x="0" height="100%" width="100%" id="canvasGrid">
   <rect fill="url(#gridpattern)" stroke-width="0" y="0" x="0" height="100%" width="100%"/>
  </g>
 </g>
 <g>
  <title>Layer 1</title>
  <text stroke="#000" transform="matrix(3.9976580142974854,0,0,1.9818181991577148,-714.9414364099503,-210.0784128010273) " xml:space="preserve" text-anchor="start" font-family="Helvetica, Arial, sans-serif" font-size="24" id="svg_6" y="236" x="238.5" stroke-opacity="null" stroke-width="0" fill="#fffcfc"/>
  <ellipse ry="59.5" rx="131.5" id="svg_1" cy="109.5" cx="277" stroke-width="1.5" stroke="#000" fill="#999999"/>
  <ellipse stroke="#000" ry="49.500001" rx="116.499996" id="svg_4" cy="109.500001" cx="277.999996" stroke-width="1.5" fill="#C97A86"/>
  <text stroke="#000" transform="matrix(4.747072696685791,0,0,2.8200480218963513,-862.700256586075,-367.68776124604153) " xml:space="preserve" text-anchor="start" font-family="Helvetica, Arial, sans-serif" font-size="24" id="svg_7" y="175.782606" x="219.967193" stroke-opacity="null" stroke-width="0" fill="#ffffff">2</text>
  <text stroke="#000" transform="matrix(1.695415233669948,0,0,0.9678036953058466,-189.4853558556767,6.421562726118182) " xml:space="preserve" text-anchor="start" font-family="Helvetica, Arial, sans-serif" font-size="24" id="svg_8" y="102.099802" x="257.320348" stroke-opacity="null" stroke-width="0" fill="#ffffff">YEAR</text>
  <text stroke="#000" transform="matrix(0.8245036602020264,0,0,0.47236113394085066,42.90885508060455,58.749000214876034) " xml:space="preserve" text-anchor="start" font-family="Helvetica, Arial, sans-serif" font-size="24" id="svg_9" y="137.428572" x="252.351404" stroke-opacity="null" stroke-width="0" fill="#ffffff">WARRANTY</text>
  <line stroke-linecap="null" stroke-linejoin="null" id="svg_12" y2="82" x2="352.5" y1="81" x1="251.5" stroke-opacity="null" stroke-width="1.5" stroke="#000" fill="none"/>
  <line stroke-linecap="null" stroke-linejoin="null" id="svg_13" y2="89" x2="541.5" y1="88" x1="541.5" stroke-opacity="null" stroke-width="1.5" stroke="#000" fill="none"/>
 </g>
</svg>
